<svg width="113" height="14" viewBox="0 0 113 14" fill="none" xmlns="http://www.w3.org/2000/svg">
<path d="M6.54492 7.50781C6.54492 8.10156 6.37305 8.55664 6.0293 8.87305C5.68945 9.18945 5.20703 9.34766 4.58203 9.34766C3.95703 9.34766 3.45898 9.14062 3.08789 8.72656C2.7207 8.30859 2.53711 7.74805 2.53711 7.04492V6.38281C2.53711 5.70312 2.72266 5.15625 3.09375 4.74219C3.46875 4.32422 3.96484 4.11523 4.58203 4.11523C5.21875 4.11523 5.70508 4.27734 6.04102 4.60156C6.38086 4.92188 6.55078 5.37305 6.55078 5.95508H5.63672C5.63672 5.58008 5.54688 5.3125 5.36719 5.15234C5.1875 4.98828 4.92578 4.90625 4.58203 4.90625C4.22266 4.90625 3.94336 5.03906 3.74414 5.30469C3.54883 5.56641 3.44922 5.91797 3.44531 6.35938V7.08008C3.44531 7.53711 3.54492 7.89844 3.74414 8.16406C3.94336 8.42578 4.22266 8.55664 4.58203 8.55664C4.92969 8.55664 5.19141 8.47852 5.36719 8.32227C5.54297 8.16211 5.63086 7.89062 5.63086 7.50781H6.54492ZM8.10352 6.72852C8.10352 6.08008 7.95703 5.47852 7.66406 4.92383C7.37109 4.36523 6.95703 3.91992 6.42188 3.58789C5.88672 3.25195 5.30078 3.08398 4.66406 3.08398C4.04297 3.08398 3.46484 3.24414 2.92969 3.56445C2.39844 3.88477 1.98047 4.32617 1.67578 4.88867C1.37109 5.45117 1.21875 6.06445 1.21875 6.72852C1.21875 7.39258 1.36914 8.00586 1.66992 8.56836C1.97461 9.13086 2.39258 9.57617 2.92383 9.9043C3.45898 10.2285 4.03906 10.3906 4.66406 10.3906C5.28906 10.3906 5.86914 10.2246 6.4043 9.89258C6.94336 9.56055 7.36133 9.11328 7.6582 8.55078C7.95508 7.98828 8.10352 7.38086 8.10352 6.72852ZM0.503906 6.72852C0.503906 5.93945 0.685547 5.20703 1.04883 4.53125C1.41602 3.85547 1.92188 3.32422 2.56641 2.9375C3.21484 2.54687 3.91406 2.35156 4.66406 2.35156C5.41406 2.35156 6.11133 2.54687 6.75586 2.9375C7.4043 3.32422 7.91016 3.85547 8.27344 4.53125C8.64062 5.20703 8.82422 5.93945 8.82422 6.72852C8.82422 7.52539 8.63867 8.26367 8.26758 8.94336C7.89648 9.61914 7.38867 10.1504 6.74414 10.5371C6.10352 10.9238 5.41016 11.1172 4.66406 11.1172C3.91016 11.1172 3.21094 10.9219 2.56641 10.5312C1.92578 10.1406 1.42188 9.60742 1.05469 8.93164C0.6875 8.25586 0.503906 7.52148 0.503906 6.72852ZM18.8262 11H12.9785V9.83984L15.7383 6.89844C16.1172 6.48438 16.3965 6.12305 16.5762 5.81445C16.7598 5.50586 16.8516 5.21289 16.8516 4.93555C16.8516 4.55664 16.7559 4.25977 16.5645 4.04492C16.373 3.82617 16.0996 3.7168 15.7441 3.7168C15.3613 3.7168 15.0586 3.84961 14.8359 4.11523C14.6172 4.37695 14.5078 4.72266 14.5078 5.15234H12.8086C12.8086 4.63281 12.9316 4.1582 13.1777 3.72852C13.4277 3.29883 13.7793 2.96289 14.2324 2.7207C14.6855 2.47461 15.1992 2.35156 15.7734 2.35156C16.6523 2.35156 17.334 2.5625 17.8184 2.98438C18.3066 3.40625 18.5508 4.00195 18.5508 4.77148C18.5508 5.19336 18.4414 5.62305 18.2227 6.06055C18.0039 6.49805 17.6289 7.00781 17.0977 7.58984L15.1582 9.63477H18.8262V11ZM25.6113 7.47266C25.6113 8.65234 25.3672 9.55469 24.8789 10.1797C24.3906 10.8047 23.6758 11.1172 22.7344 11.1172C21.8047 11.1172 21.0938 10.8105 20.6016 10.1973C20.1094 9.58398 19.8574 8.70508 19.8457 7.56055V5.99023C19.8457 4.79883 20.0918 3.89453 20.584 3.27734C21.0801 2.66016 21.793 2.35156 22.7227 2.35156C23.6523 2.35156 24.3633 2.6582 24.8555 3.27148C25.3477 3.88086 25.5996 4.75781 25.6113 5.90234V7.47266ZM23.918 5.75C23.918 5.04297 23.8203 4.5293 23.625 4.20898C23.4336 3.88477 23.1328 3.72266 22.7227 3.72266C22.3242 3.72266 22.0293 3.87695 21.8379 4.18555C21.6504 4.49023 21.5508 4.96875 21.5391 5.62109V7.69531C21.5391 8.39062 21.6328 8.9082 21.8203 9.24805C22.0117 9.58398 22.3164 9.75195 22.7344 9.75195C23.1484 9.75195 23.4473 9.58984 23.6309 9.26562C23.8145 8.94141 23.9102 8.44531 23.918 7.77734V5.75ZM32.6074 11H26.7598V9.83984L29.5195 6.89844C29.8984 6.48438 30.1777 6.12305 30.3574 5.81445C30.541 5.50586 30.6328 5.21289 30.6328 4.93555C30.6328 4.55664 30.5371 4.25977 30.3457 4.04492C30.1543 3.82617 29.8809 3.7168 29.5254 3.7168C29.1426 3.7168 28.8398 3.84961 28.6172 4.11523C28.3984 4.37695 28.2891 4.72266 28.2891 5.15234H26.5898C26.5898 4.63281 26.7129 4.1582 26.959 3.72852C27.209 3.29883 27.5605 2.96289 28.0137 2.7207C28.4668 2.47461 28.9805 2.35156 29.5547 2.35156C30.4336 2.35156 31.1152 2.5625 31.5996 2.98438C32.0879 3.40625 32.332 4.00195 32.332 4.77148C32.332 5.19336 32.2227 5.62305 32.0039 6.06055C31.7852 6.49805 31.4102 7.00781 30.8789 7.58984L28.9395 9.63477H32.6074V11ZM37.7637 11H36.0703V4.47266L34.0488 5.09961V3.72266L37.582 2.45703H37.7637V11ZM50.4609 9.92188C50.1445 10.3008 49.6973 10.5957 49.1191 10.8066C48.541 11.0137 47.9004 11.1172 47.1973 11.1172C46.459 11.1172 45.8105 10.957 45.252 10.6367C44.6973 10.3125 44.2676 9.84375 43.9629 9.23047C43.6621 8.61719 43.5078 7.89648 43.5 7.06836V6.48828C43.5 5.63672 43.6426 4.90039 43.9277 4.2793C44.2168 3.6543 44.6309 3.17773 45.1699 2.84961C45.7129 2.51758 46.3477 2.35156 47.0742 2.35156C48.0859 2.35156 48.877 2.59375 49.4473 3.07812C50.0176 3.55859 50.3555 4.25977 50.4609 5.18164H48.75C48.6719 4.69336 48.498 4.33594 48.2285 4.10938C47.9629 3.88281 47.5957 3.76953 47.127 3.76953C46.5293 3.76953 46.0742 3.99414 45.7617 4.44336C45.4492 4.89258 45.291 5.56055 45.2871 6.44727V6.99219C45.2871 7.88672 45.457 8.5625 45.7969 9.01953C46.1367 9.47656 46.6348 9.70508 47.291 9.70508C47.9512 9.70508 48.4219 9.56445 48.7031 9.2832V7.8125H47.1035V6.51758H50.4609V9.92188ZM51.5156 7.77148C51.5156 7.14258 51.6367 6.58203 51.8789 6.08984C52.1211 5.59766 52.4688 5.2168 52.9219 4.94727C53.3789 4.67773 53.9082 4.54297 54.5098 4.54297C55.3652 4.54297 56.0625 4.80469 56.6016 5.32812C57.1445 5.85156 57.4473 6.5625 57.5098 7.46094L57.5215 7.89453C57.5215 8.86719 57.25 9.64844 56.707 10.2383C56.1641 10.8242 55.4355 11.1172 54.5215 11.1172C53.6074 11.1172 52.877 10.8242 52.3301 10.2383C51.7871 9.65234 51.5156 8.85547 51.5156 7.84766V7.77148ZM53.209 7.89453C53.209 8.49609 53.3223 8.95703 53.5488 9.27734C53.7754 9.59375 54.0996 9.75195 54.5215 9.75195C54.9316 9.75195 55.252 9.5957 55.4824 9.2832C55.7129 8.9668 55.8281 8.46289 55.8281 7.77148C55.8281 7.18164 55.7129 6.72461 55.4824 6.40039C55.252 6.07617 54.9277 5.91406 54.5098 5.91406C54.0957 5.91406 53.7754 6.07617 53.5488 6.40039C53.3223 6.7207 53.209 7.21875 53.209 7.89453ZM58.3008 7.77148C58.3008 7.14258 58.4219 6.58203 58.6641 6.08984C58.9062 5.59766 59.2539 5.2168 59.707 4.94727C60.1641 4.67773 60.6934 4.54297 61.2949 4.54297C62.1504 4.54297 62.8477 4.80469 63.3867 5.32812C63.9297 5.85156 64.2324 6.5625 64.2949 7.46094L64.3066 7.89453C64.3066 8.86719 64.0352 9.64844 63.4922 10.2383C62.9492 10.8242 62.2207 11.1172 61.3066 11.1172C60.3926 11.1172 59.6621 10.8242 59.1152 10.2383C58.5723 9.65234 58.3008 8.85547 58.3008 7.84766V7.77148ZM59.9941 7.89453C59.9941 8.49609 60.1074 8.95703 60.334 9.27734C60.5605 9.59375 60.8848 9.75195 61.3066 9.75195C61.7168 9.75195 62.0371 9.5957 62.2676 9.2832C62.498 8.9668 62.6133 8.46289 62.6133 7.77148C62.6133 7.18164 62.498 6.72461 62.2676 6.40039C62.0371 6.07617 61.7129 5.91406 61.2949 5.91406C60.8809 5.91406 60.5605 6.07617 60.334 6.40039C60.1074 6.7207 59.9941 7.21875 59.9941 7.89453ZM65.1035 7.7832C65.1035 6.81055 65.334 6.02734 65.7949 5.43359C66.2598 4.83984 66.8848 4.54297 67.6699 4.54297C68.3652 4.54297 68.9062 4.78125 69.293 5.25781L69.3633 4.66016H70.8984V10.7891C70.8984 11.3438 70.7715 11.8262 70.5176 12.2363C70.2676 12.6465 69.9141 12.959 69.457 13.1738C69 13.3887 68.4648 13.4961 67.8516 13.4961C67.3867 13.4961 66.9336 13.4023 66.4922 13.2148C66.0508 13.0312 65.7168 12.793 65.4902 12.5L66.2402 11.4688C66.6621 11.9414 67.1738 12.1777 67.7754 12.1777C68.2246 12.1777 68.5742 12.0566 68.8242 11.8145C69.0742 11.5762 69.1992 11.2363 69.1992 10.7949V10.4551C68.8086 10.8965 68.2949 11.1172 67.6582 11.1172C66.8965 11.1172 66.2793 10.8203 65.8066 10.2266C65.3379 9.62891 65.1035 8.83789 65.1035 7.85352V7.7832ZM66.7969 7.90625C66.7969 8.48047 66.9121 8.93164 67.1426 9.25977C67.373 9.58398 67.6895 9.74609 68.0918 9.74609C68.6074 9.74609 68.9766 9.55273 69.1992 9.16602V6.5C68.9727 6.11328 68.6074 5.91992 68.1035 5.91992C67.6973 5.91992 67.377 6.08594 67.1426 6.41797C66.9121 6.75 66.7969 7.24609 66.7969 7.90625ZM73.9922 11H72.293V2H73.9922V11ZM78.3105 11.1172C77.3809 11.1172 76.623 10.832 76.0371 10.2617C75.4551 9.69141 75.1641 8.93164 75.1641 7.98242V7.81836C75.1641 7.18164 75.2871 6.61328 75.5332 6.11328C75.7793 5.60938 76.127 5.22266 76.5762 4.95312C77.0293 4.67969 77.5449 4.54297 78.123 4.54297C78.9902 4.54297 79.6719 4.81641 80.168 5.36328C80.668 5.91016 80.918 6.68555 80.918 7.68945V8.38086H76.8809C76.9355 8.79492 77.0996 9.12695 77.373 9.37695C77.6504 9.62695 78 9.75195 78.4219 9.75195C79.0742 9.75195 79.584 9.51562 79.9512 9.04297L80.7832 9.97461C80.5293 10.334 80.1855 10.6152 79.752 10.8184C79.3184 11.0176 78.8379 11.1172 78.3105 11.1172ZM78.1172 5.91406C77.7812 5.91406 77.5078 6.02734 77.2969 6.25391C77.0898 6.48047 76.957 6.80469 76.8984 7.22656H79.2539V7.0918C79.2461 6.7168 79.1445 6.42773 78.9492 6.22461C78.7539 6.01758 78.4766 5.91406 78.1172 5.91406ZM86.7422 9.58789H90.4746V11H84.9844V2.46875H86.7422V9.58789ZM93.2461 9.58789H96.9785V11H91.4883V2.46875H93.2461V9.58789ZM104.314 8.1582C104.248 9.07617 103.908 9.79883 103.295 10.3262C102.686 10.8535 101.881 11.1172 100.881 11.1172C99.7871 11.1172 98.9258 10.75 98.2969 10.0156C97.6719 9.27734 97.3594 8.26562 97.3594 6.98047V6.45898C97.3594 5.63867 97.5039 4.91602 97.793 4.29102C98.082 3.66602 98.4941 3.1875 99.0293 2.85547C99.5684 2.51953 100.193 2.35156 100.904 2.35156C101.889 2.35156 102.682 2.61523 103.283 3.14258C103.885 3.66992 104.232 4.41016 104.326 5.36328H102.568C102.525 4.8125 102.371 4.41406 102.105 4.16797C101.844 3.91797 101.443 3.79297 100.904 3.79297C100.318 3.79297 99.8789 4.00391 99.5859 4.42578C99.2969 4.84375 99.1484 5.49414 99.1406 6.37695V7.02148C99.1406 7.94336 99.2793 8.61719 99.5566 9.04297C99.8379 9.46875 100.279 9.68164 100.881 9.68164C101.424 9.68164 101.828 9.55859 102.094 9.3125C102.363 9.0625 102.518 8.67773 102.557 8.1582H104.314Z" fill="#AAAAAA"/>
</svg>
